<?xml version="1.0" standalone="no"?>
<!DOCTYPE svg PUBLIC "-//W3C//DTD SVG 20010904//EN"
 "http://www.w3.org/TR/2001/REC-SVG-20010904/DTD/svg10.dtd">
<svg version="1.0" xmlns="http://www.w3.org/2000/svg"
 width="562.000000pt" height="462.000000pt" viewBox="0 0 562.000000 462.000000"
 preserveAspectRatio="xMidYMid meet" fill="rgb(217 81 105)"  stroke="none" stroke-width="100px">
<metadata>
Created by potrace 1.16, written by Peter Selinger 2001-2019
</metadata>
<g transform="translate(0.000000,462.000000) scale(0.100000,-0.100000)">
<path d="M3075 4554 c-22 -2 -89 -8 -150 -14 -626 -59 -1206 -215 -1680 -452
-354 -177 -584 -337 -805 -558 -285 -284 -420 -575 -437 -945 -7 -138 4 -213
48 -351 78 -243 306 -599 479 -746 40 -35 49 -38 102 -38 75 0 396 33 633 65
413 56 916 149 1291 240 99 24 218 51 263 59 45 9 90 20 101 26 10 6 108 37
217 70 462 138 798 267 1135 435 607 304 986 632 1184 1025 70 139 87 251 60
380 -67 318 -397 552 -976 695 -329 80 -575 106 -1045 110 -209 2 -398 1 -420
-1z"/>
<path d="M2895 1811 c-11 -5 -26 -6 -32 -4 -7 3 -13 0 -13 -6 0 -6 -6 -8 -14
-5 -7 3 -68 -9 -135 -26 -584 -147 -1403 -287 -1944 -331 -81 -7 -146 -16
-145 -20 2 -5 56 -51 121 -102 847 -677 1945 -1100 3177 -1223 220 -22 747
-25 920 -6 329 38 566 114 633 204 40 52 58 130 46 189 -43 198 -403 418
-1022 624 -363 121 -783 225 -1149 286 -158 26 -200 36 -231 57 -67 45 -170
165 -215 251 -40 75 -42 81 -23 81 12 0 21 5 21 10 0 6 7 10 15 10 8 0 15 5
15 10 0 6 -1 10 -2 9 -2 0 -12 -4 -23 -8z"/>
<path d="M305 1563 c-140 -13 -263 -45 -280 -73 -13 -21 69 -41 203 -50 129
-9 302 -4 302 9 0 3 -26 31 -57 63 -61 62 -58 61 -168 51z"/>
</g>
</svg>
