<?xml version="1.0" encoding="utf-8"?>
<!-- Generator: Adobe Illustrator 24.2.0, SVG Export Plug-In . SVG Version: 6.00 Build 0)  -->
<svg version="1.1" id="Capa_1" xmlns="http://www.w3.org/2000/svg" xmlns:xlink="http://www.w3.org/1999/xlink" x="0px" y="0px"
	 viewBox="0 0 512 512" style="enable-background:new 0 0 512 512;" fill="white" xml:space="preserve">
<g>
	<g>
		<path d="M472.3,121.4C472.2,121.4,472.2,121.4,472.3,121.4L472.3,121.4h-29.7v-10.1c0.2-4-2.4-7.6-6.3-8.7
			c-20.5-5.4-41.7-8.1-62.9-8c-34.9,0-82.4,7.9-117.6,43.6c-34.9-36.1-82.8-43.6-117.6-43.6c-21.2-0.1-42.4,2.6-62.9,8
			c-3.8,1.1-6.4,4.7-6.3,8.7v10H39.7c-4.8,0-8.7,3.9-8.7,8.7v278.6c0,4.8,3.9,8.7,8.7,8.7c1.5,0,3-0.4,4.3-1.1
			c0.9-0.4,88.1-48.1,209.9-17.4h1.3h0.8c0.7,0.1,1.4,0.1,2.1,0c122.1-31,209.3,16.7,209.9,17.4c2.7,1.6,6,1.6,8.7,0
			c2.7-1.5,4.3-4.4,4.4-7.5V130.2C481,125.3,477.1,121.4,472.3,121.4z M48.4,394.8V138.9h20.8v218.8c-0.1,4.8,3.8,8.8,8.6,8.8
			c0.5,0,0.9,0,1.4-0.1c18-2.8,36.3-4.2,54.5-4.4c25.3-0.4,50.5,3.4,74.5,11.3C154.1,366.7,99,374.1,48.4,394.8z M133.8,344.6
			c-15.9,0-31.7,1.1-47.5,3.1V118.2c17-3.8,34.3-5.7,51.7-5.8c32.6,0,77.6,7.5,108.9,42.7l0.3,217.3
			C229.1,360.6,193.7,344.6,133.8,344.6z M264.7,155.2c31.2-34.9,76.2-42.7,108.9-42.7c17.4,0.1,34.7,2,51.7,5.8v229.5
			c-15.7-2-31.4-3.1-47.2-3.1c-59.5,0-95,16-113.4,27.8V155.2z M463.5,394.8c-50.7-20.7-105.9-28.2-160.2-21.5
			c24.1-7.9,49.4-11.7,74.8-11.3c18.4,0.1,36.7,1.5,54.9,4.3c4.8,0.7,9.2-2.6,9.9-7.3c0.1-0.5,0.1-0.9,0.1-1.4V138.9h20.8
			L463.5,394.8z"/>
	</g>
</g>
</svg>
